<svg width="366" height="235" viewBox="0 0 366 235" fill="none" xmlns="http://www.w3.org/2000/svg">
<rect width="366" height="235" fill="#F2F2F7"/>
<path d="M15 143L91 197" stroke="black"/>
<path d="M20 147C1.66667 124.333 -19.6 86.4 42 116L116 156C84.6667 115 48.6 28 155 8C182.667 -0.333334 240.2 -7.6 249 30C257.8 67.6 242.667 129.667 234 156L339 116M350 147C296.4 172.6 250.333 191.667 234 198" stroke="black"/>
<path d="M336 115C354.667 113.333 383.2 117 348 145M124 187C131.333 168 149.2 141.4 162 187C171.333 169.333 192.4 144.6 202 187L162 234L124 187Z" stroke="black"/>
<path d="M155 119L175 112" stroke="black"/>
<path d="M158 120C166.333 135 183.8 153.8 187 109" stroke="black"/>
<path d="M134 63C134.455 63 132.15 60.3479 131.611 59.0556C130.552 56.5129 136.899 59.7827 136.333 59.9444C126.384 62.787 136 55.1995 136 58.5C136 59.5181 136.562 63.0719 135.778 63.7778C133.28 66.0258 130 63.5158 130 61C130 56.1932 132.242 50.5524 136.778 56.2222C139.665 59.8316 130.814 65.6182 130.056 61.4444C128.849 54.8089 137 52.1686 137 58.5556C137 60.8555 137.788 63 135 63C132.392 63 130 63.9217 130 60.7778C130 58.49 128.886 54.8361 132 55C134.146 55.1129 137.113 57.226 138 59" stroke="black" stroke-width="3" stroke-linecap="round"/>
<path d="M204 51C204 50.2373 206.491 56.0646 208.778 53.7778C210.956 51.6 207.591 45.52 204.556 48.5556C201.89 51.221 208.282 56.8007 208 52C207.905 50.3804 200.389 50.3868 200.056 51.5556C199.33 54.0933 205.101 56.4547 206.778 54.7778C209.282 52.2735 205.155 46.6456 202.5 46.0556C198.922 45.2603 199.537 52.0068 201 53.5556C204.934 57.7211 205.606 51.5861 204.944 48.6111C204.229 45.3908 192.051 51.4732 201.444 54.8889C202.631 55.3202 204.598 57.5469 204.944 56.3333C205.713 53.6438 207 50.836 207 48C207 43.141 201.881 44.7848 201.056 48.5C200.352 51.6668 203.426 54 206 54C207.416 54 203.673 53.8218 203.222 54.2222C202.298 55.044 207.148 55 207.444 55C210.981 55 212.491 51.2358 210.778 48C207.843 42.457 194.803 54 206 54" stroke="black" stroke-width="3" stroke-linecap="round"/>
</svg>
